<svg version="1" xmlns="http://www.w3.org/2000/svg" width="298.667" height="298.667" viewBox="0 0 224.000000 224.000000"><path d="M98.8 3C77.4 6.4 60.7 15.2 48.6 29.3c-3.9 4.6-12.7 18.6-13.9 22-.1.5-2.5-.5-5.2-2.2-5.9-3.7-11.8-4.2-13.5-1.2-.5 1.1-1 3.5-1 5.5 0 3.9 4 17.3 7.7 25.6 2.4 5.4 2.4 5.7 1.3 17.5-1.7 17.2-.8 57.1 1.5 64.9 2.6 9.4 7.1 17.3 13.5 23.9 3.3 3.3 5.6 6.5 5.3 7-.3.6-.1.7.5.3.6-.4 4.2.9 7.9 2.8 15.3 7.8 29.3 10.1 59.8 10 29.9-.1 46.6-3.2 60.2-11.1 2.3-1.3 4.8-2.1 5.4-1.7.7.4.9.3.6-.3-.3-.5 2.2-3.9 5.6-7.4 10.8-11.1 14.2-21 15.7-44.9 1-15.7.8-26.2-1.1-44.6l-1-10 3.4-8.5c6.4-15.5 8.5-26.7 5.5-29.7-2.2-2.2-8.1-1.4-13.2 1.9-2.7 1.6-4.9 2.9-5.1 2.7-.1-.2-1.5-2.8-3-5.8-10.7-21.4-28.4-35.4-51.8-41-9.5-2.3-26.7-3.3-34.9-2zm2.7 2.9c-1.6 1-3.4 1.6-3.9 1.3-.5-.3.4-1.1 2-1.8 4.3-1.9 5.3-1.6 1.9.5zm-9.1 1c.4.5-.3.7-1.4.4-2.3-.6-2.6-1.3-.6-1.3.8 0 1.7.4 2 .9zm52.1 3.1c1.3.6 1.5.9.5.9-.8 0-2.2-.4-3-.9-1.8-1.2-.2-1.2 2.5 0zm4.9 2.8c.3.5-.1.9-.9.9s-1.2-.4-.9-.9c.3-.4.7-.8.9-.8.2 0 .6.4.9.8zM83 14c1.3.8 1.3 1-.2 1-.9 0-2-.5-2.3-1-.8-1.3.5-1.3 2.5 0zm71.1.7c1.3 1.7 1.3 1.7-.6.3-1.1-.8-2.2-1.6-2.4-1.7-.2-.2 0-.3.6-.3s1.7.8 2.4 1.7zm-86.7 3.1c.2.4.1 1.4-.3 2.1-.6.9-1.1 1-1.5.2-.4-.6-.1-1.1.6-1.1.9 0 .9-.3-.2-1-.9-.6-1-1-.3-1 .6 0 1.4.4 1.7.8zm93.1 2c-.3.3-1.1 0-1.8-.7-.9-1-.8-1.1.6-.5 1 .3 1.5.9 1.2 1.2zm-98.1 1.1c.3.5 0 1.1-.7 1.4-.8.3-1.4-.1-1.4-.9 0-1.6 1.3-1.9 2.1-.5zm100.1 1c.3.5 0 1.3-.6 1.7-.8.5-.9.3-.4-.6.6-1 .4-1.2-.9-.7-1 .4-1.5.3-1.1-.3.8-1.3 2.2-1.3 3-.1zm9 7.2c-.3.4.1.9.7 1.2.7.2.2.4-1.2.5-1.4 0-3.4.2-4.6.5-1.4.3-2.1 0-2.1-.9s.4-1 1.1-.5c.7.6 2 .5 3.4-.3l2.3-1.2-2.2-2c-2.2-1.9-2.2-1.9-1.5.1.5 1.5.4 1.7-.4.9-.6-.6-1.2-1.8-1.3-2.5-.2-.8-.6-2.1-1.1-2.9-.5-.8 1 .3 3.2 2.4 2.3 2.2 3.9 4.3 3.7 4.7zM53.7 26.8c-1 1-1.4 2.2-1 2.6.5.4.1.6-.7.4-.9-.2-1.5.4-1.5 1.6 0 1.1-.6 2.1-1.3 2.4-.6.2-.9.8-.6 1.3.3.6 1.2.5 2.2-.2 1.3-1 1.3-.9-.1.7-1.5 1.6-1.9 1.7-2.7.4-.5-.8-1-1.8-1-2.1 0-.8 7-8.9 7.7-8.9.4 0-.1.8-1 1.8zM147 33c0 .5-.2 1-.4 1-.3 0-.8-.5-1.1-1-.3-.6-.1-1 .4-1 .6 0 1.1.4 1.1 1zm29.1.7c.8 1 .9 1.4.2 1-.6-.4-1.5-.2-1.9.4-.5.8-.9.7-1.5-.2-1.7-2.8 1.1-3.9 3.2-1.2zm-91.8 0c-.7.2-1.9.2-2.5 0-.7-.3-.2-.5 1.2-.5s1.9.2 1.3.5zm-5.6.9c-.3.3-1.2.4-1.9.1-.8-.3-.5-.6.6-.6 1.1-.1 1.7.2 1.3.5zM80 37c-.8.5-2.2.9-3 .9-1 0-.8-.3.5-.9 2.7-1.2 4.3-1.2 2.5 0zm56.5 0c-.3.5-1.2 1-1.8 1-.7 0-.6-.4.3-1 1.9-1.2 2.3-1.2 1.5 0zm9.5-.6c0 .3-.4.8-1 1.1-.5.3-1 .1-1-.4 0-.6.5-1.1 1-1.1.6 0 1 .2 1 .4zm-99 1c0 .2-.7.7-1.6 1-.8.3-1.2.2-.9-.4.6-1 2.5-1.4 2.5-.6zm128.5.5c.3.5.2 1.2-.3 1.5-.5.3-.9-.1-.9-.9 0-1.7.3-1.9 1.2-.6zm-125 1.9c-.3.3-1.1 0-1.8-.7-.9-1-.8-1.1.6-.5 1 .3 1.5.9 1.2 1.2zM185 48.1c0 1.4-.5 1.1-3.1-1.7l-2.4-2.7 2.8 1.8c1.5.9 2.7 2.1 2.7 2.6zM79.5 46c.3.5.2 1-.4 1-.5 0-1.3-.5-1.6-1-.3-.6-.2-1 .4-1 .5 0 1.3.4 1.6 1zm65.5 0c0 .5-.5 1-1.1 1-.5 0-.7-.5-.4-1 .3-.6.8-1 1.1-1 .2 0 .4.4.4 1zM42.8 48.5c-.3.3-.9-.2-1.2-1.2-.6-1.4-.5-1.5.5-.6.7.7 1 1.5.7 1.8zm-17.3 1.3c-.3.3-1.1 0-1.8-.7-.9-1-.8-1.1.6-.5 1 .3 1.5.9 1.2 1.2zm13.8-.3c-.3.9-.8 1.4-1 1.1-.3-.3-.2-.9.2-1.5.9-1.6 1.5-1.3.8.4zm72.4.1c-.3.3-1.2.4-1.9.1-.8-.3-.5-.6.6-.6 1.1-.1 1.7.2 1.3.5zm-89.8.7c-.2.1-1.2.9-2.2 1.6-1.5 1.2-1.7 1.2-1.1-.3.3-.9 1.3-1.6 2.2-1.6.8 0 1.3.1 1.1.3zm164.5 1.3c.3.8.2 1.2-.4.9-.6-.3-1-1-1-1.6 0-1.4.7-1.1 1.4.7zm4.6 1.8c0 .2-.8 1-1.7 1.7-1.6 1.3-1.7 1.2-.4-.4 1.3-1.6 2.1-2.1 2.1-1.3zM33 55c0 .5-.2 1-.4 1-.3 0-.8-.5-1.1-1-.3-.6-.1-1 .4-1 .6 0 1.1.4 1.1 1zm172.1.7c1.3 1.6 1.2 1.7-.3.4-1-.7-1.8-1.5-1.8-1.7 0-.8.8-.3 2.1 1.3zM43.5 57.1c-.4.5-.2.9.2.9.5 0 1.4.9 2 2 1.1 1.6 1 1.8-.1 1.4-1.4-.5-2.6-2.5-3.2-5.2-.1-.6.2-1 .7-.6.5.3.7 1 .4 1.5zm74.7.6c3.9 3.5.7 9.3-5.1 9.3-5.1 0-8-6-4.5-9.4 2-2.1 7.3-2 9.6.1zm5 2.8c.9 2 .9 2-.6.1-.9-1.1-1.6-2.7-1.5-3.5 0-1.4.1-1.4.6-.1.3.8 1 2.4 1.5 3.5zm59.8-4.1c0 .2-.6.9-1.4 1.5-1.1.9-1.6.9-2.2 0-.4-.7-.3-.9.4-.5.6.3 1.3.2 1.7-.4.6-1 1.5-1.4 1.5-.6zm-77 1c0 .2-.7.9-1.5 1.6-1.3 1.1-1.4 1-.9-.4.5-1.4 2.4-2.3 2.4-1.2zm68.4 5.1c-.4.8-.8 1.5-1 1.5-.2 0-.4-.7-.4-1.5s.4-1.5 1-1.5c.5 0 .7.7.4 1.5zm11.6-1.1c0 .3-.4.8-1 1.1-.5.3-1 .1-1-.4 0-.6.5-1.1 1-1.1.6 0 1 .2 1 .4zm-64.6 5.1c-.4.8-1.3 1.5-2 1.5-1.2 0-1.2-.3-.2-1.5 1.7-1.9 2.9-1.9 2.2 0zm-10.8 3.1c-.7 1.7.6 1.8 2.2.2.9-.9 1.5-.9 2.3-.1.8.8.7 1.3-.2 1.8-.8.5-1 .4-.5-.3.4-.7.3-1.2-.3-1.2-.5 0-1.2.4-1.6.9-.3.6-1.4.9-2.5.8-1.3-.1-1.6-.5-1-1.2.6-.7.5-1.6-.3-2.4-.9-1-.8-1.1.6-.5 1 .3 1.6 1.3 1.3 2zm91.9-1.7c.3.5.1 1.2-.5 1.6-.5.3-1-.1-1-.9 0-1.8.6-2.1 1.5-.7zm-3 1.1c.3.5.1 1-.4 1-.6 0-1.1-.5-1.1-1 0-.6.2-1 .4-1 .3 0 .8.4 1.1 1zM25.1 74.7c-1.2 2-1.4 1.4-.5-1.2.4-.9.9-1.4 1.1-1.1.3.2 0 1.3-.6 2.3zm100.2-1c-.3.7-.6 1.3-.8 1.3-.2 0-.5-.6-.8-1.3-.3-.8.1-1.4.8-1.4.7 0 1.1.6.8 1.4zm75.2.3c.3.6-.1.7-.9.4-1.8-.7-2.1-1.4-.7-1.4.6 0 1.3.4 1.6 1zM87.7 77.2c-.3.8-.6.5-.6-.6-.1-1.1.2-1.7.5-1.3.3.3.4 1.2.1 1.9zm13.2.8c1.3 2 1.4 2.3.1 1.6-.8-.4-.7-.1.3.7 1.8 1.5 1.8 1.5 0 2-1.4.4-1.4.5.5.6 2.2.1 3.2 3.1 1 3.1-.6 0-.4.6.6 1.3 2.4 1.8 1.4 4.9-2.2 7.3-4 2.7-4.9 2.5-6.5-.9C92.9 89.8 92.4 78 94 78c.6 0 .8.6.5 1.2-.4.7 0 .5.8-.5.9-1.1 2.2-1.5 3.3-1.1 1.6.5 1.6.4.4-.5-.8-.6-2.3-.8-3.4-.5-1.2.4-1.6.2-1.1-.6 1.1-1.8 4.6-.7 6.4 2zm6.1-1.9c0-.8.3-1.2.6-.9.3.4-.2 1.9-1.1 3.5-1.3 2.4-1.5 2.5-.9.4.4-1.6.3-2.1-.5-1.7-.7.5-.8.1-.4-.9.5-1.3.7-1.4 1.4-.3.7 1.1.9 1 .9-.1zm16-.7c0 .2-.8 1-1.7 1.7-1.6 1.3-1.7 1.2-.4-.4 1.3-1.6 2.1-2.1 2.1-1.3zm-32.3 2.8c-.3.8-.6.5-.6-.6-.1-1.1.2-1.7.5-1.3.3.3.4 1.2.1 1.9zM200 76.4c0 .2-.8 1-1.7 1.7-1.6 1.3-1.7 1.2-.4-.4 1.3-1.6 2.1-2.1 2.1-1.3zm-70.2 1.8c1.4 1.4 1.7 14.2.3 13.4-.5-.4-.7.2-.5 1.1.6 2.4-1.5 5.4-2.3 3.4-.4-1-.7-1-1.3-.1-.5.9-1.5.6-3.4-1.1-2.9-2.5-3.6-4.9-.8-2.8 1.4 1.1 1.5 1.1.5-.1-1-1-1-1.7-.1-2.9 1-1.3 1-1.4-.2-.4-1.9 1.7-3 1.6-3-.2 0-.8.8-1.5 1.8-1.5 1.4 0 1.5-.2.2-1-1.2-.8-1.2-1 .5-1.1 1.1 0 1.4-.3.8-.6-1.9-.7-1.6-1.7 1.2-4.7 2.6-2.8 4.4-3.3 6.3-1.4zM110 81.4c0 .2-.7.7-1.6 1-.8.3-1.2.2-.9-.4.6-1 2.5-1.4 2.5-.6zm5.3 4.8c1.8 2.5 1.8 2.6.1 4.7-1.9 2.1-4.1 3-2.9 1.1.3-.6-.4-1-1.7-1-1.8 0-2 .2-.8 1 .8.5 1 1 .4 1-1.5 0-3.6-2.5-2.8-3.3.3-.3 1.3-.3 2.2 0 1.4.4 1.5.3.2-.5-.8-.6-1.8-.8-2.2-.6-.4.3-.8 0-.8-.5 0-.6.5-1.1 1.1-1.1.5 0 .8-.4.4-.9-.6-1.1 2.4-3.2 3.9-2.8.6.2 1.8 1.5 2.9 2.9zm-27.1 2c-.6.6-.7 0-.4-1.9.5-2.1.7-2.3 1-.9.2 1 0 2.2-.6 2.8zm-2.7.8c.3.6-.1.7-.9.4-1.8-.7-2.1-1.4-.7-1.4.6 0 1.3.4 1.6 1zm57 0c.3.5.1 1-.4 1-.6 0-1.1-.5-1.1-1 0-.6.2-1 .4-1 .3 0 .8.4 1.1 1zm5.2.7c0 .8-.6.9-1.9.2-1-.5-1.8-1.1-1.8-1.2 0-.2.8-.3 1.8-.3s1.9.6 1.9 1.3zm-68.2.2c.3.6-.3 1.4-1.3 2-1.4.7-1.9.6-1.9-.4 0-.7.7-1.1 1.5-.7 1 .3 1.3.1.8-.6-.4-.7-.5-1.2-.2-1.2s.7.4 1.1.9zm12.9 2.5c.4 1.8 1.5 4.1 2.5 5 1.8 1.6 2.2 1.6 4.9.2 1.7-.9 3.7-2.5 4.5-3.6 1.4-2 1.5-2 4.5-.3s3.2 1.7 6-.4l2.9-2.2 2.2 3c4.5 6.1 10.5 5.8 11.7-.6.3-1.9 1.2-3.5 1.9-3.5 2.8 0 13.7 8.3 17.9 13.7 9.5 12 11.6 20.4 11.7 46.1 0 16.9-2.4 47-3.9 48.3-5 4.5-44.6 8-66.7 5.9-12.2-1.2-28.5-4.7-29-6.3-.3-.7-1.1-8.1-2-16.6-1.7-17.6-2-44.5-.5-54.1 2.2-13.7 12-27.9 24-34.8 3-1.8 5.8-3.2 6.1-3.2.4 0 1 1.5 1.3 3.4zm-19 5.1c-.7 1.8-2 1.9-3 .3-.4-.6-.3-.8.4-.4.6.3 1.3.2 1.7-.4.9-1.5 1.5-1.2.9.5zm-3.3 5.2c-1.2 2-1.4 1.4-.5-1.2.4-.9.9-1.4 1.1-1.1.3.2 0 1.3-.6 2.3zm-2.7 2.5c-.3.5-1 .6-1.5.3-.5-.4-.9-.1-.9.5s-.5.8-1.2.4c-.7-.5-.9-.2-.6.8.4.8 0 1.5-.7 1.5-1.7 0-.2-3.3 1.7-3.9 2.1-.7 3.7-.5 3.2.4zm91.5 1.1c1.2 1.5 1.2 1.7-.3 1.1-.9-.3-1.6-1.3-1.6-2.2 0-.8.1-1.3.3-1.1.1.2.9 1.2 1.6 2.2zm-96.8 6.4c-1.2 2-1.4 1.4-.5-1.2.4-.9.9-1.4 1.1-1.1.3.2 0 1.3-.6 2.3zm100.8 2.8c0 .5-.4.3-.9-.5s-.9-2.2-.9-3c0-1.6 1.7 1.6 1.8 3.5zM54.7 131.2c-.3.7-.5.2-.5-1.2s.2-1.9.5-1.3c.2.7.2 1.9 0 2.5zm143 18c-.3.8-.6.5-.6-.6-.1-1.1.2-1.7.5-1.3.3.3.4 1.2.1 1.9zm-141.8 8.3c0 .5-.4.3-.9-.5s-.9-2.2-.9-3c0-1.6 1.7 1.6 1.8 3.5zM57 167c0 .5-.5 1-1.1 1-.5 0-.7-.5-.4-1 .3-.6.8-1 1.1-1 .2 0 .4.4.4 1zm134.8 4.1c-.3.8-.7.3-1.1-1-.4-1.7-.3-2.1.5-1.3.5.5.8 1.6.6 2.3zm-2.7 4.2c-1 .9-1.1.8-.5-.6.3-1 .9-1.5 1.2-1.2.3.3 0 1.1-.7 1.8zm-5.1 3.9c0 .7-.5.6-1.3-.1-.8-.6-1.8-.7-2.2-.3-.5.4-.5.2-.1-.5.8-1.4 3.6-.6 3.6.9zm3.5-1.2c-.3.5-1.2 1-1.8 1-.7 0-.6-.4.3-1 1.9-1.2 2.3-1.2 1.5 0zm-5.1 2.8c.3.5-.1.9-.9.9s-1.2-.4-.9-.9c.3-.4.7-.8.9-.8.2 0 .6.4.9.8zm1.7 2.5c-1 .9-1.1.8-.5-.6.3-1 .9-1.5 1.2-1.2.3.3 0 1.1-.7 1.8zm-10.5 3.2c-.3.8-.1 1.6.5 1.9.5.2.4.3-.2.2-.7-.1-1.3-1.2-1.4-2.4-.1-1.1.2-1.9.7-1.6.5.4.7 1.2.4 1.9zm5.4.9c0 .2-.8 1-1.7 1.7-1.6 1.3-1.7 1.2-.4-.4 1.3-1.6 2.1-2.1 2.1-1.3zm-11.8 5c1-.5 1-.4.2.5-1.2 1.3-4.4.5-4.4-1.1 0-.6.6-.5 1.5.2.8.6 2 .8 2.7.4zm-2.2 3c0 .2-.7.7-1.6 1-.8.3-1.2.2-.9-.4.6-1 2.5-1.4 2.5-.6z"/><path d="M100.7 91.5c.3.8.9 1.2 1.4.9 1.2-.7 1.1-1.1-.5-1.7-1-.4-1.3-.1-.9.8zM126 79c-.9.6-1 1-.3 1 .6 0 1.5-.5 1.8-1 .8-1.2.4-1.2-1.5 0zM60.9 209.7l-2.4 2.8 3-2.5c1.7-1.4 3.2-2.6 3.4-2.8.2-.1 0-.2-.6-.2-.5 0-2 1.2-3.4 2.7zM161.3 210c1.9 1.6 3.8 3 4.1 3 .4 0-.9-1.4-2.7-3-1.9-1.7-3.8-3-4.1-3-.4 0 .9 1.3 2.7 3z"/></svg>